<?xml version="1.0" encoding="utf-8"?>
<svg xmlns="http://www.w3.org/2000/svg" viewBox="0 0 500 500" xmlns:bx="https://boxy-svg.com" style="filter: none;" width="500px" height="500px"><rect width="500" height="500" rx="99.885" ry="99.885" style="stroke: none; fill: rgb(255, 255, 255); pointer-events: none; visibility: hidden;"><title>Фон</title></rect><defs><path id="text-path-0" d="M 86.35051727294922 402.84727491610835 Q 250.14986419677734 364.4514465332031 413.94921112060547 402.84727491610835"/><path id="path-0" d="M 170.408 300.973 C 177.322 305.181 187.502 312.045 192.293 314.441 C 199.266 318.889 212.99 317.808 218.388 317.808 C 225.866 315.752 238.328 317.808 245.324 317.808 C 255.893 317.808 260.87 313.599 269.734 313.599 C 278.943 313.599 286.242 314.441 294.145 314.441 C 300.498 314.441 306.702 311.074 310.98 311.074 C 315.003 307.892 318.541 306.038 321.923 302.656 C 324.749 299.83 327.815 297.886 327.815 295.08 C 332.256 296.459 332.548 290.872 337.916 290.872 L 338.758 290.872 C 338.758 289.914 340.441 289.353 340.441 289.188" style="fill: none;"/><path id="text-path-1"/><path id="path-1" d="M 109.802 291.713 C 124.281 310.57 156.991 324.075 170.408 327.909 C 192.505 330.434 212.223 334.738 226.805 337.168 C 244.592 334.988 259.589 335.998 274.785 332.959 C 288.324 326.154 303.175 327.296 310.98 319.491 C 318.342 310.517 320.888 302.201 324.448 295.08 L 324.448 294.239 C 324.448 291.517 327.815 289.183 327.815 286.663" style="fill: none;"/><path id="path-2" d="M 166.199 300.973 C 187.243 307.426 227.522 316.853 249.533 316.966 C 283.764 317.141 369.211 285.671 335.084 288.345 C 310.437 290.276 195.084 316.154 198.185 313.6 C 205.994 307.169 312.148 389.918 320.565 384.306" style="fill: none;"/><path id="text-path-2" d="M 155.967 292.554 C 270.603 411.071 358.46 239.233 330.564 286.662"/><bx:export><bx:file format="svg" path="logotype12.svg"/><bx:file format="png" path="pnglogo12.png"/></bx:export><style bx:fonts="Cormorant Garamond">@import url(https://fonts.googleapis.com/css2?family=Cormorant+Garamond%3Aital%2Cwght%400%2C300%3B0%2C400%3B0%2C500%3B0%2C600%3B0%2C700%3B1%2C300%3B1%2C400%3B1%2C500%3B1%2C600%3B1%2C700&amp;display=swap);</style></defs><path style="stroke: rgb(0, 0, 0); stroke-width: 0px; fill: rgb(139, 90, 43);" d="M 411.136 176.679 C 416.311 188.353 411.61 203.057 400.115 211.153 C 404.235 194.799 395.51 180.577 381.776 176.325 C 382.733 174.583 383.277 172.583 383.277 170.457 C 383.277 168.126 382.624 165.948 381.492 164.097 C 393.183 160.674 405.918 164.906 411.136 176.679 Z"/><path d="M 379.999 143.261 L 389.788 157.089 L 405.965 162.126 L 395.838 175.709 L 396.047 192.651 L 379.999 187.217 L 363.951 192.651 L 364.16 175.709 L 354.033 162.126 L 370.21 157.089 Z" bx:shape="star 379.999 170.563 27.302 27.302 0.61 5 1@721873b2" style="fill: rgb(166, 123, 91); stroke: rgb(139, 90, 43); stroke-width: 4px; stroke-dasharray: 100; stroke-linejoin: round; transform-box: fill-box; transform-origin: 50% 50%;"/><g transform="matrix(0.814346, 0, 0, 0.814346, -85.8557, 24.3708)"><title>Стакан2.0</title><path d="M 141.623 179.158 C 150.594 208.147 195.702 230.197 250.001 230.197 C 304.3 230.197 349.408 208.147 358.378 179.158 L 324.336 384.948 C 311.818 406.743 283.183 421.977 249.86 421.977 C 216.878 421.977 188.49 407.054 175.775 385.614 L 141.623 179.158 Z" style="stroke: rgb(0, 0, 0); stroke-width: 0px; fill: rgb(166, 123, 91); pointer-events: none;"><title>Тіло стаканчика</title></path><path d="M 331.43 341.137 L 327.356 353.995 C 314.4 365.77 284.765 374 250.276 374 C 216.141 374 186.761 365.937 173.602 354.355 L 167.748 335.881 L 155.871 260 C 176.679 274.213 211.082 283.5 250 283.5 C 288.918 283.5 323.321 274.213 344.13 260 L 331.43 341.137 Z" style="fill: rgb(139, 90, 43); paint-order: stroke; stroke: rgb(255, 255, 255); stroke-dasharray: 200, 0, 200, 0; stroke-width: 0px;"><title>Етикетка</title></path><path d="M 280.546 348.74 L 280.546 328.36 L 260.475 328.36 L 260.475 305.715 L 263.547 305.715 C 268.943 306.749 274.78 307.362 280.885 307.468 L 280.885 327.606 L 300.956 327.606 L 300.956 346.905 C 295.528 348.09 289.296 348.763 282.669 348.763 C 281.957 348.763 281.249 348.755 280.546 348.74 Z" style="paint-order: stroke; stroke: rgb(255, 255, 255); stroke-dasharray: 200, 0, 200, 0; stroke-width: 0px; fill: rgb(22, 22, 22);"/><path d="M 175.775 385.614 C 181.944 396.017 191.804 404.885 204.087 411.259 C 196.357 386.787 191.451 350.281 191.451 309.502 C 191.451 276.706 194.624 246.674 199.887 223.442 C 169.706 214.77 147.612 198.51 141.623 179.158 Z" style="stroke: rgb(0, 0, 0); stroke-width: 0px; fill: rgb(22, 22, 22); fill-opacity: 0.3; visibility: hidden;"><title>shadow</title></path><ellipse style="stroke: rgb(0, 0, 0); stroke-width: 0px; fill: rgb(22, 22, 22);" cx="250" cy="188.864" rx="118.5" ry="53.864"><title>Шапка#1</title></ellipse><ellipse style="stroke: rgb(0, 0, 0); stroke-width: 0px; fill: rgb(45, 45, 45);" cx="250" cy="172.5" rx="104.498" ry="47.5"><title>Шапка#2</title></ellipse><ellipse style="stroke: rgb(0, 0, 0); stroke-width: 0px; fill: rgb(22, 22, 22);" cx="250" cy="163" rx="95.697" ry="46"><title>Шапка#3</title></ellipse><path d="M 250 151.063 m -85 0 a 85 35.063 0 1 0 170 0 a 85 35.063 0 1 0 -170 0 Z M 250 151.063 m -54.187 0 a 54.187 18.168 0 0 1 108.374 0 a 54.187 18.168 0 0 1 -108.374 0 Z" bx:shape="ring 250 151.063 54.187 18.168 85 35.063 1@e544c2f1" style="stroke: rgb(0, 0, 0); stroke-width: 0px; fill: rgb(45, 45, 45);"><title>Шапка#4</title></path></g><g transform="matrix(0.719142, 0, 0, 0.719142, -62.0553, 62.3418)"><title>Король</title><path d="M 241.33 299.28 Q 250 293.417 258.67 299.28 L 271.226 307.772 Q 279.896 313.635 276.584 323.122 L 271.788 336.862 Q 268.476 346.349 257.76 346.349 L 242.24 346.349 Q 231.524 346.349 228.212 336.862 L 223.416 323.122 Q 220.104 313.635 228.774 307.772 Z" bx:shape="n-gon 250 322.677 31.434 29.26 5 0.29 1@5ab709cf" style="fill: rgb(216, 216, 216); stroke: rgb(0, 0, 0); stroke-width: 0px;"/><rect x="218.014" y="339.692" width="63.973" height="13" rx="20" ry="20" style="fill: rgb(216, 216, 216); stroke: rgb(0, 0, 0); stroke-width: 0px;"/><ellipse style="stroke: rgb(0, 0, 0); fill: rgb(212, 212, 212); stroke-width: 0px;" cx="250" cy="286.587" rx="7.5" ry="7.5"/><path d="M 241.33 299.28 C 242.841 298.258 244.352 297.503 245.863 297.016 C 244.439 304.053 243.639 311.967 243.639 320.333 C 243.639 332.515 245.334 343.738 248.185 352.692 L 238.014 352.692 C 226.968 352.692 218.014 349.782 218.014 346.192 C 218.014 343.551 222.861 341.277 229.822 340.26 C 229.188 339.253 228.651 338.12 228.212 336.862 L 223.416 323.122 C 221.208 316.797 222.994 311.681 228.774 307.772 Z M 242.5 286.587 C 242.5 282.445 245.858 279.087 250 279.087 C 250.575 279.087 251.135 279.152 251.673 279.274 C 249.692 283.203 248.001 287.956 246.688 293.318 C 244.207 292.095 242.5 289.54 242.5 286.587 Z" style="stroke: rgb(0, 0, 0); stroke-width: 0px; fill: rgb(61, 61, 61); fill-opacity: 0.31;"><title>shadow</title></path></g><path d="M 132.46 400.967 C 131.943 400.493 131.861 398.696 132.214 395.574 C 132.568 392.453 133.314 388.339 134.455 383.234 L 138.438 385.147 C 137.667 389.64 137.162 393.243 136.924 395.954 C 136.685 398.665 136.716 400.817 137.013 402.41 C 137.31 404.002 137.919 405.22 138.841 406.063 C 138.887 406.104 138.846 406.191 138.721 406.324 C 138.595 406.456 138.51 406.502 138.465 406.461 L 132.46 400.967 Z M 144.928 373.507 C 146.973 375.38 148.209 377.2 148.632 378.969 C 149.055 380.738 148.638 382.286 147.383 383.613 C 146.189 384.873 144.746 385.677 143.053 386.025 C 141.357 386.373 139.659 386.295 137.956 385.789 C 136.252 385.282 134.76 384.442 133.477 383.27 C 132.6 382.467 131.992 381.89 131.653 381.539 L 124.713 388.866 C 124.064 389.552 123.649 390.101 123.468 390.513 C 123.289 390.925 123.309 391.336 123.529 391.746 C 123.751 392.155 124.222 392.688 124.942 393.346 C 124.987 393.387 124.947 393.474 124.821 393.607 C 124.695 393.739 124.609 393.785 124.565 393.744 C 123.823 393.065 123.248 392.519 122.841 392.107 L 120.31 389.727 L 117.816 387.507 C 117.344 387.118 116.727 386.573 115.962 385.873 C 115.895 385.811 115.923 385.714 116.049 385.582 C 116.174 385.449 116.271 385.413 116.339 385.475 C 117.059 386.134 117.634 386.557 118.064 386.745 C 118.496 386.933 118.925 386.923 119.352 386.716 C 119.778 386.509 120.306 386.074 120.935 385.41 L 135.475 370.056 C 136.103 369.394 136.507 368.856 136.686 368.443 C 136.868 368.031 136.847 367.61 136.626 367.179 C 136.403 366.749 135.943 366.215 135.247 365.578 C 135.201 365.537 135.242 365.45 135.367 365.317 C 135.493 365.184 135.579 365.139 135.623 365.18 L 137.38 366.848 C 138.372 367.839 139.171 368.612 139.78 369.168 C 140.545 369.868 141.375 370.565 142.269 371.26 C 142.582 371.506 142.969 371.818 143.427 372.197 C 143.888 372.576 144.388 373.013 144.928 373.507 Z M 142.343 381.354 C 144.06 379.542 144.973 378.046 145.082 376.866 C 145.191 375.687 144.741 374.635 143.729 373.709 C 142.829 372.886 142.031 372.466 141.334 372.447 C 140.638 372.429 139.924 372.806 139.191 373.58 L 132.532 380.61 C 132.989 381.192 133.599 381.834 134.364 382.534 C 135.669 383.727 136.948 384.226 138.201 384.032 C 139.455 383.839 140.836 382.946 142.343 381.354 Z M 149.104 415.167 C 147.576 414.049 146.501 412.725 145.877 411.195 C 145.255 409.667 145.081 408.089 145.355 406.463 C 145.628 404.837 146.289 403.334 147.336 401.954 C 148.528 400.38 149.949 399.34 151.597 398.833 C 153.246 398.326 154.905 398.259 156.574 398.634 C 158.244 399.009 159.744 399.684 161.076 400.658 C 162.604 401.776 163.668 403.102 164.269 404.635 C 164.871 406.166 165.037 407.729 164.77 409.322 C 164.501 410.914 163.871 412.364 162.879 413.672 C 161.779 415.125 160.432 416.145 158.838 416.73 C 157.246 417.315 155.589 417.466 153.868 417.185 C 152.145 416.905 150.558 416.232 149.104 415.167 Z M 150.791 415.216 C 151.752 415.919 152.839 415.99 154.05 415.428 C 155.263 414.865 156.529 413.711 157.851 411.967 C 159.135 410.272 160.014 408.656 160.488 407.12 C 160.962 405.584 161.076 404.246 160.831 403.106 C 160.583 401.964 160.053 401.096 159.24 400.501 C 157.268 399.058 154.97 400.068 152.346 403.533 C 151.116 405.155 150.238 406.743 149.713 408.298 C 149.186 409.852 149.018 411.236 149.211 412.449 C 149.402 413.663 149.928 414.585 150.791 415.216 Z M 188.867 419.059 C 188.92 419.09 188.9 419.184 188.807 419.34 C 188.714 419.496 188.641 419.559 188.588 419.528 C 187.739 419.039 186.789 418.974 185.739 419.332 C 184.689 419.69 183.509 420.402 182.197 421.468 L 170.912 430.457 C 167.331 433.297 164.461 435.083 162.297 435.816 C 160.134 436.547 158.27 436.463 156.705 435.563 C 155.909 435.105 155.397 434.591 155.168 434.021 C 154.937 433.451 155.009 432.853 155.381 432.227 C 155.739 431.628 156.195 431.279 156.753 431.18 C 157.311 431.081 157.854 431.184 158.384 431.489 C 158.676 431.657 158.898 431.838 159.051 432.03 C 159.203 432.223 159.371 432.494 159.553 432.845 C 159.855 433.474 160.231 433.918 160.682 434.177 C 161.318 434.543 162.061 434.612 162.91 434.384 C 163.759 434.154 164.843 433.588 166.164 432.686 C 167.485 431.785 169.282 430.413 171.555 428.57 L 170.154 430.653 L 171.384 413.352 C 171.467 411.895 171.452 410.888 171.34 410.333 C 171.225 409.778 170.93 409.362 170.452 409.087 C 170.371 409.042 170.378 408.941 170.471 408.785 C 170.565 408.628 170.652 408.573 170.732 408.618 C 171.474 409.046 172.035 409.388 172.417 409.642 L 174.065 410.644 L 176.833 412.184 C 177.273 412.402 177.85 412.717 178.565 413.129 C 178.646 413.175 178.639 413.277 178.546 413.433 C 178.453 413.589 178.366 413.644 178.288 413.598 C 177.597 413.201 177.059 412.97 176.671 412.904 C 176.282 412.838 176.011 412.936 175.856 413.197 C 175.731 413.405 175.655 413.711 175.629 414.116 L 174.623 427.187 L 171.816 428.669 L 181.147 420.809 C 181.789 420.27 182.273 419.726 182.6 419.178 C 183.035 418.449 183.16 417.76 182.978 417.112 C 182.793 416.464 182.303 415.911 181.509 415.452 C 181.455 415.422 181.475 415.329 181.568 415.172 C 181.662 415.016 181.735 414.953 181.787 414.983 C 182.504 415.395 183.04 415.721 183.396 415.962 L 185.757 417.374 L 187.373 418.251 C 187.706 418.409 188.204 418.678 188.867 419.059 Z M 195.927 441.694 C 195.79 441.702 195.637 441.67 195.468 441.598 C 194.904 441.36 194.537 440.785 194.367 439.875 C 194.197 438.965 194.367 437.926 194.877 436.76 L 197.974 429.687 C 198.751 427.911 199.168 426.559 199.225 425.629 C 199.28 424.699 198.955 424.085 198.249 423.786 C 196.754 423.154 195.409 423.933 194.216 426.124 C 193.766 426.92 193.258 427.412 192.691 427.6 C 192.124 427.787 191.473 427.726 190.738 427.415 C 190.033 427.118 189.582 426.754 189.385 426.325 C 189.188 425.896 189.193 425.447 189.4 424.975 C 189.765 424.143 190.608 423.554 191.929 423.209 C 193.251 422.863 194.715 422.751 196.318 422.87 C 197.92 422.99 199.259 423.277 200.333 423.731 C 201.573 424.256 202.416 425.064 202.858 426.155 C 203.3 427.246 203.181 428.569 202.5 430.122 L 199.275 437.488 C 198.923 438.292 198.798 438.979 198.9 439.548 C 199.003 440.118 199.321 440.516 199.857 440.742 C 200.252 440.909 200.704 440.985 201.213 440.97 L 201.254 440.988 C 201.367 441.036 201.418 441.131 201.406 441.274 C 201.394 441.417 201.319 441.492 201.182 441.499 L 195.927 441.694 Z M 187.781 438.297 C 186.567 437.784 185.765 437.133 185.376 436.343 C 184.985 435.552 184.996 434.686 185.41 433.743 C 185.738 432.993 186.186 432.467 186.754 432.165 C 187.32 431.863 187.937 431.697 188.602 431.666 C 189.268 431.635 190.168 431.662 191.302 431.746 L 192.524 431.821 L 197.432 432.072 L 197.329 432.767 L 194.441 432.829 C 194.344 432.82 194.017 432.805 193.458 432.782 C 192.898 432.759 192.352 432.882 191.817 433.149 C 191.281 433.416 190.893 433.827 190.649 434.382 C 190.358 435.048 190.35 435.66 190.623 436.22 C 190.897 436.779 191.316 437.178 191.879 437.417 C 192.332 437.608 192.865 437.652 193.478 437.55 L 196.214 437.031 L 195.964 437.715 L 192.09 438.542 C 191.234 438.738 190.479 438.821 189.823 438.791 C 189.167 438.76 188.487 438.595 187.781 438.297 Z M 205.868 445.193 C 205.809 445.176 205.805 445.08 205.857 444.907 C 205.909 444.733 205.965 444.655 206.023 444.672 C 206.937 444.935 207.627 444.906 208.09 444.583 C 208.556 444.261 208.962 443.52 209.307 442.36 L 215.936 420.288 C 216.238 419.273 216.359 418.521 216.296 418.031 C 216.234 417.541 215.968 417.229 215.496 417.093 C 215.113 416.983 214.505 416.981 213.673 417.086 L 213.628 417.073 C 213.54 417.049 213.482 416.946 213.457 416.764 C 213.43 416.584 213.451 416.488 213.517 416.476 L 220.915 415.349 L 221.104 415.357 C 221.252 415.399 221.394 415.511 221.532 415.693 C 221.671 415.874 221.722 416.023 221.688 416.138 L 213.508 443.57 C 213.162 444.73 213.089 445.566 213.289 446.08 C 213.488 446.593 214.044 446.981 214.958 447.245 C 215.075 447.279 215.109 447.383 215.057 447.557 C 215.006 447.731 214.921 447.801 214.804 447.767 C 214.066 447.555 213.48 447.37 213.047 447.214 L 210.361 446.394 L 207.693 445.672 C 207.243 445.574 206.634 445.414 205.868 445.193 Z M 254.523 453.487 C 251.02 453.504 247.975 452.877 245.387 451.607 C 242.8 450.335 240.81 448.601 239.414 446.403 C 238.021 444.205 237.317 441.762 237.304 439.074 C 237.289 436.205 238.051 433.634 239.592 431.361 C 241.132 429.089 243.265 427.319 245.994 426.053 C 248.723 424.786 251.793 424.144 255.204 424.128 C 256.679 424.12 258.155 424.226 259.631 424.445 C 261.107 424.664 262.29 424.952 263.183 425.31 C 263.522 425.43 263.714 425.528 263.76 425.603 C 263.808 425.678 263.848 425.926 263.881 426.349 L 264.512 432.643 C 264.512 432.733 264.427 432.794 264.259 432.826 C 264.091 432.857 263.99 432.812 263.958 432.691 C 263.555 431.697 262.903 430.613 262.006 429.439 C 261.109 428.266 259.937 427.245 258.488 426.376 C 257.04 425.507 255.363 425.077 253.457 425.087 C 251.492 425.097 249.695 425.634 248.072 426.698 C 246.448 427.764 245.174 429.281 244.248 431.248 C 243.32 433.216 242.864 435.498 242.877 438.095 C 242.891 440.934 243.448 443.468 244.551 445.698 C 245.653 447.927 247.175 449.656 249.117 450.885 C 251.059 452.114 253.244 452.722 255.672 452.71 C 256.932 452.705 257.899 452.564 258.574 452.288 C 259.247 452.013 259.737 451.482 260.041 450.696 C 260.344 449.909 260.491 448.746 260.483 447.206 C 260.476 445.635 260.378 444.541 260.19 443.923 C 260.002 443.304 259.609 442.89 259.008 442.682 C 258.408 442.474 257.355 442.374 255.849 442.381 C 255.665 442.382 255.573 442.262 255.571 442.02 C 255.57 441.93 255.593 441.846 255.638 441.77 C 255.685 441.694 255.738 441.656 255.8 441.656 C 258.412 441.794 260.532 441.86 262.16 441.852 C 263.728 441.843 265.356 441.79 267.046 441.692 C 267.169 441.691 267.239 441.796 267.255 442.007 C 267.272 442.219 267.204 442.325 267.049 442.326 C 266.497 442.298 266.105 442.398 265.876 442.625 C 265.647 442.853 265.503 443.315 265.445 444.01 C 265.386 444.705 265.362 445.913 265.371 447.635 C 265.378 448.994 265.437 449.96 265.547 450.532 C 265.658 451.106 265.713 451.469 265.714 451.62 C 265.715 451.801 265.685 451.922 265.624 451.982 C 265.563 452.042 265.424 452.103 265.209 452.165 C 261.249 453.03 257.687 453.471 254.523 453.487 Z M 287.623 449.178 C 287.516 449.263 287.374 449.326 287.193 449.366 C 286.593 449.496 285.953 449.241 285.273 448.601 C 284.594 447.961 284.113 447.022 283.834 445.784 L 282.134 438.265 C 281.708 436.379 281.241 435.042 280.732 434.256 C 280.224 433.47 279.595 433.158 278.846 433.322 C 277.255 433.669 276.629 435.073 276.965 437.537 C 277.076 438.442 276.956 439.133 276.607 439.611 C 276.259 440.089 275.695 440.413 274.915 440.584 C 274.166 440.748 273.583 440.713 273.168 440.478 C 272.753 440.244 272.488 439.877 272.374 439.375 C 272.175 438.491 272.509 437.528 273.376 436.489 C 274.242 435.449 275.361 434.516 276.732 433.69 C 278.103 432.864 279.359 432.327 280.5 432.078 C 281.82 431.79 282.984 431.962 283.991 432.593 C 285 433.223 285.69 434.363 286.064 436.015 L 287.834 443.842 C 288.027 444.697 288.334 445.326 288.755 445.729 C 289.177 446.132 289.673 446.272 290.243 446.148 C 290.662 446.056 291.074 445.858 291.478 445.552 L 291.522 445.543 C 291.642 445.517 291.74 445.565 291.815 445.688 C 291.89 445.811 291.874 445.915 291.768 446 L 287.623 449.178 Z M 278.994 451.11 C 277.705 451.391 276.667 451.324 275.879 450.908 C 275.092 450.491 274.586 449.782 274.36 448.78 C 274.18 447.984 274.23 447.3 274.51 446.729 C 274.79 446.157 275.19 445.667 275.713 445.259 C 276.234 444.852 276.98 444.356 277.95 443.773 L 278.984 443.13 L 283.114 440.511 L 283.444 441.135 L 281.139 442.844 C 281.056 442.893 280.78 443.07 280.314 443.373 C 279.847 443.676 279.477 444.09 279.201 444.614 C 278.927 445.138 278.856 445.695 278.989 446.284 C 279.149 446.991 279.507 447.493 280.062 447.79 C 280.617 448.087 281.193 448.17 281.794 448.039 C 282.274 447.933 282.732 447.663 283.168 447.228 L 285.077 445.234 L 285.283 445.931 L 282.633 448.83 C 282.057 449.482 281.494 449.983 280.945 450.335 C 280.393 450.688 279.743 450.946 278.994 451.11 Z M 320.212 437.455 C 320.129 437.491 320.049 437.426 319.974 437.26 C 319.9 437.094 319.906 436.993 319.99 436.956 C 320.862 436.58 321.369 436.121 321.515 435.581 C 321.658 435.039 321.483 434.216 320.988 433.11 L 318.316 427.139 C 317.648 425.646 316.893 424.652 316.051 424.158 C 315.209 423.664 314.254 423.649 313.186 424.111 C 312.313 424.488 311.562 425.059 310.932 425.826 C 310.302 426.594 309.895 427.447 309.71 428.384 L 309.276 427.978 C 310.041 423.985 311.732 421.423 314.348 420.293 C 315.867 419.636 317.219 419.563 318.404 420.073 C 319.588 420.584 320.571 421.711 321.35 423.453 L 324.913 431.415 C 325.407 432.52 325.906 433.204 326.409 433.465 C 326.911 433.726 327.598 433.668 328.471 433.292 C 328.583 433.243 328.677 433.301 328.751 433.466 C 328.824 433.632 328.805 433.74 328.694 433.788 C 327.962 434.104 327.379 434.34 326.945 434.495 L 324.394 435.547 L 321.966 436.647 C 321.528 436.869 320.943 437.138 320.212 437.455 Z M 309.157 442.232 C 309.074 442.269 308.994 442.204 308.921 442.038 C 308.846 441.872 308.851 441.771 308.935 441.734 C 309.807 441.358 310.315 440.899 310.46 440.359 C 310.603 439.817 310.428 438.994 309.935 437.888 L 307.263 431.916 C 306.594 430.423 305.839 429.43 304.998 428.936 C 304.156 428.442 303.201 428.426 302.131 428.889 C 301.259 429.266 300.508 429.837 299.878 430.604 C 299.247 431.372 298.84 432.225 298.655 433.162 L 298.222 432.756 C 298.987 428.763 300.678 426.201 303.293 425.071 C 304.784 424.426 306.12 424.335 307.3 424.799 C 308.481 425.262 309.41 426.254 310.091 427.774 L 313.857 436.193 C 314.352 437.298 314.851 437.981 315.354 438.242 C 315.857 438.503 316.544 438.446 317.415 438.069 C 317.529 438.021 317.622 438.079 317.696 438.244 C 317.77 438.41 317.751 438.518 317.639 438.566 C 316.908 438.882 316.325 439.118 315.89 439.273 L 313.34 440.325 L 310.912 441.425 C 310.475 441.647 309.889 441.916 309.157 442.232 Z M 298.315 446.918 C 298.23 446.955 298.151 446.89 298.078 446.724 C 298.003 446.559 298.008 446.458 298.092 446.421 C 298.965 446.044 299.466 445.588 299.595 445.054 C 299.725 444.519 299.544 443.699 299.049 442.593 L 295.56 434.796 C 295.177 433.94 294.79 433.357 294.4 433.047 C 294.009 432.737 293.589 432.679 293.139 432.874 C 292.66 433.08 292.072 433.566 291.373 434.33 L 291.288 434.366 C 291.204 434.403 291.109 434.361 291.005 434.241 C 290.903 434.122 290.873 434.035 290.917 433.982 L 295.519 428.629 C 295.663 428.5 295.749 428.43 295.777 428.418 C 296.115 428.272 296.588 428.487 297.2 429.066 C 297.811 429.643 298.376 430.511 298.895 431.672 L 303.014 440.878 C 303.509 441.985 304.008 442.669 304.51 442.93 C 305.013 443.191 305.701 443.132 306.573 442.755 C 306.657 442.719 306.737 442.784 306.809 442.949 C 306.884 443.115 306.879 443.217 306.795 443.253 C 306.064 443.569 305.482 443.804 305.047 443.959 L 302.497 445.012 L 300.026 446.13 C 299.617 446.339 299.046 446.602 298.315 446.918 Z M 343.725 424.987 C 342.625 425.706 341.418 426.213 340.106 426.508 C 338.792 426.803 337.458 426.849 336.104 426.645 L 335.577 420.626 C 336.512 422.01 337.525 422.99 338.614 423.565 C 339.706 424.14 340.732 424.404 341.695 424.356 C 342.658 424.307 343.472 424.066 344.137 423.631 C 345.238 422.912 345.709 421.808 345.55 420.317 C 345.39 418.826 344.639 417.086 343.296 415.098 C 341.817 412.909 340.345 411.523 338.881 410.938 C 337.416 410.353 336.018 410.495 334.687 411.364 C 333.331 412.249 332.297 413.722 331.586 415.782 L 331.035 415.706 C 331.372 413.964 331.814 412.489 332.361 411.279 C 332.908 410.069 333.834 409.038 335.14 408.186 C 336.292 407.434 337.533 407.005 338.863 406.898 C 340.193 406.791 341.502 407.079 342.793 407.76 C 344.082 408.441 345.236 409.536 346.256 411.045 C 347.481 412.856 348.136 414.658 348.222 416.45 C 348.309 418.244 347.939 419.882 347.114 421.362 C 346.288 422.843 345.159 424.052 343.725 424.987 Z M 334.589 430.625 C 334.487 430.692 334.389 430.684 334.295 430.601 C 334.201 430.517 334.197 430.428 334.282 430.336 C 334.658 429.583 334.799 428.794 334.702 427.969 C 334.605 427.143 334.234 426.253 333.589 425.297 L 321.196 406.956 C 320.601 406.075 320.092 405.5 319.671 405.232 C 319.25 404.963 318.821 404.971 318.386 405.254 C 318.053 405.472 317.673 405.92 317.247 406.597 L 317.208 406.623 C 317.105 406.69 316.981 406.671 316.837 406.565 C 316.693 406.46 316.638 406.379 316.672 406.321 L 320.517 400.057 L 320.684 399.894 C 320.812 399.81 320.985 399.779 321.202 399.8 C 321.419 399.822 321.562 399.883 321.63 399.983 L 338.358 424.739 L 334.665 430.575 L 334.589 430.625 Z M 357.773 414.554 C 357.701 414.611 357.607 414.569 357.491 414.428 C 357.375 414.288 357.353 414.189 357.425 414.132 C 358.164 413.542 358.526 412.972 358.508 412.423 C 358.49 411.874 358.095 411.131 357.321 410.192 L 352.126 403.89 C 351.469 403.093 350.912 402.585 350.453 402.366 C 349.997 402.147 349.578 402.19 349.196 402.494 C 348.885 402.741 348.55 403.222 348.19 403.936 L 348.154 403.965 C 348.058 404.04 347.933 404.033 347.778 403.942 C 347.625 403.85 347.574 403.765 347.627 403.685 L 351.003 396.914 L 351.082 396.794 C 351.201 396.699 351.368 396.662 351.584 396.684 C 351.8 396.707 351.948 396.765 352.025 396.859 L 352.662 397.634 C 353.389 398.61 354.313 399.779 355.435 401.14 L 360.688 407.511 C 361.461 408.45 362.125 408.98 362.68 409.102 C 363.234 409.223 363.882 408.988 364.623 408.4 C 364.695 408.342 364.788 408.384 364.905 408.526 C 365.02 408.666 365.042 408.765 364.971 408.822 C 364.35 409.316 363.851 409.694 363.474 409.956 L 361.296 411.632 L 359.212 413.35 C 358.873 413.659 358.394 414.06 357.773 414.554 Z M 346.849 394.393 C 346.156 394.944 345.464 395.184 344.773 395.113 C 344.082 395.042 343.455 394.666 342.892 393.985 C 342.391 393.375 342.187 392.731 342.281 392.054 C 342.374 391.376 342.756 390.772 343.425 390.24 C 344.093 389.707 344.751 389.474 345.4 389.541 C 346.049 389.608 346.633 389.958 347.154 390.591 C 347.717 391.272 347.973 391.942 347.924 392.604 C 347.875 393.264 347.517 393.86 346.849 394.393 Z M 375.873 400.146 C 374.885 401.052 373.823 401.593 372.686 401.768 C 371.549 401.942 370.457 401.477 369.408 400.373 L 362.429 393.019 C 361.779 392.334 361.206 391.973 360.707 391.934 C 360.208 391.896 359.632 392.175 358.982 392.772 C 358.959 392.793 358.899 392.786 358.802 392.751 C 358.707 392.715 358.627 392.665 358.564 392.599 C 358.479 392.51 358.423 392.428 358.393 392.351 C 358.363 392.276 358.371 392.217 358.416 392.176 C 359.519 391.082 360.216 389.989 360.505 388.899 C 360.794 387.808 360.699 386.635 360.222 385.38 C 360.183 385.249 360.237 385.117 360.383 384.983 C 360.529 384.849 360.643 384.827 360.727 384.915 L 371.573 396.344 C 372.37 397.183 373.176 397.601 373.992 397.598 C 374.806 397.594 375.574 397.262 376.293 396.603 C 377.191 395.779 377.754 394.644 377.978 393.199 L 378.014 393.104 C 378.104 393.022 378.22 392.999 378.361 393.036 C 378.5 393.072 378.556 393.143 378.531 393.249 C 378.476 394.828 378.237 396.172 377.817 397.279 C 377.397 398.387 376.75 399.343 375.873 400.146 Z M 368.841 385.096 C 366.865 386.247 364.889 387.729 362.911 389.541 L 362.093 388.68 C 363.554 387.342 365.303 385.532 367.342 383.25 C 367.386 383.209 367.515 383.246 367.728 383.36 C 367.942 383.475 368.143 383.631 368.332 383.83 C 368.542 384.051 368.707 384.302 368.826 384.583 C 368.947 384.865 368.951 385.036 368.841 385.096 Z" style="fill: rgb(9, 9, 9); stroke-width: 0px; text-wrap-mode: nowrap; visibility: hidden;"><title>Текст</title></path><text style="fill: rgb(51, 51, 51); font-family: &quot;Cormorant Garamond&quot;; font-size: 28px; font-weight: 700; white-space: pre;" x="236.907" y="238.683" transform="matrix(2.40939, 0, 0, 2.36154, -358.304, -294.531)">Royal<tspan x="236.90699768066406" dy="1em">​</tspan>Gambit</text></svg>